<svg width="17.1598" height="14" overflow="visible" style="display: block;" viewBox="0 0 17.1598 14" fill="none" xmlns="http://www.w3.org/2000/svg">
<g id="Layer_1" clip-path="url(#clip0_1727_848)">
<path id="Vector" d="M5.47548 8.34734L9.42521 3.48708H7.27193C6.3048 3.48708 5.64282 3.78239 5.05467 4.46898L2.97522 7.02584V0H0.888381C0.398664 0 0 0.398664 0 0.890842V14H2.08683C2.57901 14 2.97522 13.6013 2.97522 13.1092V9.62208L4.66585 11.6966L6.10301 13.466C6.39339 13.8302 6.77483 13.9975 7.16611 13.9975H10.0773L8.19476 11.6868L5.47548 8.34488V8.34734ZM14.6029 11.5268C14.1649 11.5268 13.8056 11.1675 13.8056 10.727V0H11.7188C11.229 0 10.8279 0.398664 10.8279 0.888381V11.2856C10.8279 12.8926 11.9378 14 13.5447 14H15.8383C16.3305 14 16.7291 13.6013 16.7291 13.1092V11.5243H14.6029V11.5268Z" fill="var(--fill-0, black)"/>
<path id="Vector_2" d="M3.25819 6.66841L3.26311 6.66349C3.26311 6.66349 3.26065 6.66595 3.25573 6.66841H3.25819ZM17.1598 4.68494V2.7113L16.9752 2.90571C16.9678 2.90817 16.4092 3.4791 14.8047 3.4791H7.21776C6.01931 3.4791 5.4533 3.96636 5.02511 4.49545L4.79133 4.78337C4.79133 4.78337 4.77656 4.8006 4.76918 4.80798L3.26311 6.66103C3.81189 6.2476 4.56 5.99905 5.32534 5.99905H14.8022C15.9515 5.99905 17.0564 5.66191 17.1475 4.8006C17.1598 4.72923 17.1573 4.68494 17.1573 4.68494H17.1598Z" fill="var(--fill-0, #8E8E8E)"/>
</g>
<defs>
<clipPath id="clip0_1727_848">
<rect width="17.1598" height="14" fill="white"/>
</clipPath>
</defs>
</svg>
