<svg width="83.9642" height="14" overflow="visible" style="display: block;" viewBox="0 0 83.9642 14" fill="none" xmlns="http://www.w3.org/2000/svg">
<g id="Layer_1" clip-path="url(#clip0_1727_820)">
<path id="Vector" d="M26.5337 1.13392C26.5337 0.643414 26.1351 0.387939 25.7008 0.387939H16.7184V1.27699H24.357V3.30035C24.357 4.05655 24.2957 4.81276 24.0556 5.43611H15.0782V6.32517H20.3052V8.03173H16.5242V8.92079H24.3008V13.5193H25.5629C26.176 13.5193 26.4826 13.2945 26.4826 12.5639V8.79816C26.4826 8.31276 26.1351 8.03173 25.7213 8.03173H22.487V6.32517H28.0461V5.43611H25.9257C26.2884 4.95071 26.549 3.98502 26.549 3.23903V1.13392H26.5337Z" fill="var(--fill-0, black)"/>
<path id="Vector_2" d="M5.31911 8.88501H2.8359C3.01984 9.07917 3.12714 9.61567 3.12714 10.0091V12.4668C3.12714 13.2843 3.41838 13.5142 4.26656 13.5142H11.9768V12.6252H5.31911V8.88501Z" fill="var(--fill-0, black)"/>
<path id="Vector_3" d="M8.0219 1.15985H5.09927V0H2.68759C2.8562 0.153285 2.91752 0.59781 2.91752 0.919708V1.15985H0V2.04891H1.91095C1.06277 2.62117 0.49562 3.5511 0.480292 4.70073C0.505839 6.63723 2.1 7.9708 3.99562 7.9708C5.89124 7.9708 7.49562 6.63723 7.52628 4.70073C7.51095 3.5511 6.9438 2.62117 6.09051 2.04891H8.03212V1.15985H8.0219ZM3.99051 7.07153C3.02993 7.07153 2.38613 6.10073 2.37591 4.71095C2.38613 3.31606 3.02993 2.35037 3.99051 2.35037C4.95109 2.35037 5.61022 3.32117 5.62044 4.71095C5.61022 6.10584 4.96131 7.07153 3.99051 7.07153Z" fill="var(--fill-0, black)"/>
<path id="Vector_4" d="M11.4759 0.296509H8.99273C9.23288 0.490669 9.29419 1.03228 9.29419 1.44103V9.67242H10.5562C11.1745 9.67242 11.4759 9.40162 11.4759 8.72206V4.34833H13.627V3.45928H11.4759V0.296509Z" fill="var(--fill-0, black)"/>
<path id="Vector_5" d="M54.7636 0.31189C55.0497 0.521379 55.1928 1.017 55.1928 1.44109V13.5148H56.2045C56.8994 13.5148 57.1702 13.0754 57.1702 12.3754V0.31189H54.7636Z" fill="var(--fill-0, black)"/>
<path id="Vector_6" d="M52.2445 4.49656H50.1139V5.38561H52.2445V12.309H53.1898C53.8796 12.309 54.2015 11.9104 54.2015 11.1082V0.31189H51.8562C52.1168 0.490722 52.2445 1.03233 52.2445 1.44109V4.49656Z" fill="var(--fill-0, black)"/>
<path id="Vector_7" d="M37.1612 1.67023C37.197 1.19505 36.9364 0.832275 36.4357 0.832275H30.6262V1.72133H34.9539C34.9539 4.86877 33.0634 6.85636 29.8904 7.39286L30.2838 7.99067C34.3816 7.50527 36.8597 5.61476 37.1612 1.67534" fill="var(--fill-0, black)"/>
<path id="Vector_8" d="M41.6373 0.31189H39.1337C39.3891 0.51116 39.522 1.04766 39.522 1.45642V2.43744H37.2432V3.32649H39.522V4.61408H37.1716V5.50313H39.522V7.5316C38.9702 7.29145 38.3468 7.1535 37.6928 7.1535C35.5724 7.1535 33.7943 8.54839 33.7636 10.5769C33.7943 12.6053 35.5724 14.0002 37.6928 14.0002C39.8132 14.0002 41.6118 12.6053 41.6424 10.5769C41.6424 10.5411 41.6424 10.5002 41.6373 10.4644H41.6424V0.31189H41.6373ZM37.6877 13.0754C36.5483 13.0754 35.7819 12.0535 35.7716 10.5922C35.7819 9.12576 36.5483 8.10386 37.6877 8.10386C38.8271 8.10386 39.614 9.12576 39.6242 10.5922C39.614 12.0586 38.8373 13.0754 37.6877 13.0754Z" fill="var(--fill-0, black)"/>
<path id="Vector_9" d="M50.7371 1.60892C50.7371 1.0622 50.3897 0.832275 49.9503 0.832275H44.8306V1.72133H48.6065C48.6065 4.44979 46.7006 6.17169 43.8955 7.18848C46.9357 7.66877 49.2401 9.19651 50.8138 11.4191V8.71111C49.5671 7.71476 48.1211 7.16293 46.7313 6.91768C48.8722 6.11038 50.7371 3.46366 50.7371 1.60892Z" fill="var(--fill-0, black)"/>
<path id="Vector_10" d="M75.4161 0.31189L78.8599 10.7659L82.1964 0.31189H83.9643C83.9643 0.31189 79.9737 12.2323 79.8 12.7331C79.6263 13.2338 79.1869 13.5148 78.6299 13.5148H77.3577L72.9278 0.31189H75.4161Z" fill="var(--fill-0, black)"/>
<path id="Vector_11" d="M71.6963 0.31189H60.1437V1.50751H64.778V13.5148H66.0145C66.6276 13.5148 67.0619 13.1469 67.0619 12.6002V1.5024H71.6963V0.31189Z" fill="var(--fill-0, black)"/>
<path id="Vector_12" d="M73.8883 0.31189H72.5291C72.8817 0.51116 73.1474 0.976123 73.2956 1.41043" fill="var(--fill-0, black)"/>
</g>
<defs>
<clipPath id="clip0_1727_820">
<rect width="83.9642" height="14" fill="white"/>
</clipPath>
</defs>
</svg>
