<svg width="50.5198" height="14" overflow="visible" style="display: block;" viewBox="0 0 50.5198 14" fill="none" xmlns="http://www.w3.org/2000/svg">
<g id="_&#235;&#160;&#136;&#236;&#157;&#180;&#236;&#150;&#180;_1" clip-path="url(#clip0_1727_860)">
<path id="Vector" d="M7.00503 14C10.8699 14 14.0101 10.8699 14.0101 7.00252C14.0101 3.13515 10.8699 0 7.00503 0C3.14019 0 0 3.13264 0 7.00252C0 10.8724 3.13264 14 7.00503 14Z" fill="var(--fill-0, #8E8E8E)"/>
<path id="Vector_2" d="M6.72347 3.93066V10.0701H8.67603V9.51909H7.2871V3.93066H6.72347Z" fill="var(--fill-0, black)"/>
<path id="Vector_3" d="M4.76824 5.60639C5.23373 5.60639 5.60864 5.22896 5.60864 4.7685C5.60864 4.30804 5.23373 3.9281 4.76824 3.9281C4.30275 3.9281 3.93035 4.30804 3.93035 4.7685C3.93035 5.22896 4.30526 5.60639 4.76824 5.60639Z" fill="var(--fill-0, black)"/>
<path id="Vector_4" d="M7.28707 1.14231C7.2141 1.1398 7.07571 1.13477 7.00778 1.13477C3.77449 1.13477 1.14257 3.76668 1.14257 6.99745C1.14257 8.56755 1.75149 10.0395 2.8586 11.1441C3.96824 12.2487 5.4402 12.8576 7.01029 12.8576C8.58039 12.8576 10.0448 12.2487 11.1519 11.1441C12.259 10.037 12.873 8.56755 12.873 6.99745V6.73577H8.68607V7.27423H12.3144C12.3144 7.27423 12.3144 7.34217 12.3144 7.35727C12.1307 10.12 9.82338 12.3091 7.01281 12.3091C5.59117 12.3091 4.2576 11.7555 3.25364 10.7516C2.24717 9.75267 1.69361 8.41909 1.69361 6.99494C1.69361 5.57078 2.24717 4.23973 3.25364 3.23829C4.2576 2.23433 5.59117 1.68329 7.01281 1.68329C7.0732 1.68329 7.22417 1.68329 7.2921 1.68581V1.1398L7.28707 1.14231Z" fill="var(--fill-0, black)"/>
<path id="Vector_5" d="M48.2654 2.46309V0.168335H46.5695V2.46309H44.3327V4.0835H46.5695V6.35058H48.2654V4.0835H50.5199V2.46309H48.2654Z" fill="var(--fill-0, black)"/>
<path id="Vector_6" d="M40.82 2.44556V7.64146C40.82 9.09581 40.0979 9.81292 38.875 9.81292C37.6522 9.81292 36.93 9.09832 36.93 7.64146V2.44556H34.8643V7.67165C34.8643 10.5451 36.3941 11.6246 38.7995 11.6246H38.948C41.356 11.6246 42.8858 10.5451 42.8858 7.67165V2.44556H40.82Z" fill="var(--fill-0, black)"/>
<path id="Vector_7" d="M19.7118 11.4912H23.5465V9.72984H19.2161V2.44299H17.1252V11.4912H19.7118Z" fill="var(--fill-0, black)"/>
<path id="Vector_8" d="M28.146 8.04496H29.8495V9.62763C29.535 9.74841 28.9235 9.86667 28.3423 9.86667C26.4602 9.86667 25.8337 8.91052 25.8337 6.97055C25.8337 5.03058 26.43 4.02914 28.3121 4.02914C29.3588 4.02914 29.9552 4.35624 30.4483 4.98529L31.7492 3.79011C30.9566 2.65531 29.5677 2.31311 28.2693 2.31311C25.343 2.31311 23.8056 3.91088 23.8056 6.95545C23.8056 10 25.1946 11.6305 28.2542 11.6305C29.6583 11.6305 31.0321 11.2732 31.7794 10.7498V6.35912H28.1511V8.04747L28.146 8.04496Z" fill="var(--fill-0, black)"/>
</g>
<defs>
<clipPath id="clip0_1727_860">
<rect width="50.5198" height="14" fill="white"/>
</clipPath>
</defs>
</svg>
